<?xml version="1.0" encoding="utf-8"?>
<!-- Generator: Adobe Illustrator 25.3.0, SVG Export Plug-In . SVG Version: 6.00 Build 0)  -->
<svg version="1.1" id="Layer_1" xmlns="http://www.w3.org/2000/svg" xmlns:xlink="http://www.w3.org/1999/xlink" x="0px" y="0px"
	 viewBox="0 0 512 512" style="enable-background:new 0 0 512 512;" xml:space="preserve">
<style type="text/css">
	.st0{display:none;}
	.st1{display:inline;}
	.st2{fill:#992327;}
	.st3{display:inline;fill-rule:evenodd;clip-rule:evenodd;fill:#992327;}
	.st4{display:inline;fill-rule:evenodd;clip-rule:evenodd;fill:#FFFFFF;}
	.st5{display:inline;fill:#992327;}
	.st6{fill:#EF443B;}
	.st7{fill:#FFFFFF;}
</style>
<g id="FreeBSD" xmlns:cc="http://creativecommons.org/ns#" xmlns:dc="http://purl.org/dc/elements/1.1/" xmlns:inkscape="http://www.inkscape.org/namespaces/inkscape" xmlns:rdf="http://www.w3.org/1999/02/22-rdf-syntax-ns#" xmlns:sodipodi="http://sodipodi.sourceforge.net/DTD/sodipodi-0.dtd" xmlns:svg="http://www.w3.org/2000/svg" class="st0">
	<g id="g4083" transform="translate(150.85172,149.13018)" class="st1">
		<g id="g7898" transform="matrix(1.0193461,0,0,1.0193461,242.03416,-717.78373)">
			<path id="path123" class="st2" d="M31.1,648.1c17.9,18-31.8,96.8-40.2,105.2S-38.9,754-56.8,736c-17.9-17.9-25.7-39.3-17.3-47.7
				C-65.7,679.9,13.1,630.2,31.1,648.1z"/>
			<path id="path125" class="st2" d="M-220.5,667.1c-27.4-15.5-66.4-32.8-78.8-20.4c-12.6,12.6,5.4,52.4,21.1,79.9
				C-264.3,702.2-244.4,681.8-220.5,667.1L-220.5,667.1z"/>
			<path id="path127" class="st2" d="M3.7,747.1c2.5,8.6,2.1,15.6-2,19.7c-9.6,9.6-35.4-0.6-58.6-22.8c-1.6-1.5-3.2-3-4.8-4.6
				c-8.4-8.4-15-17.4-19.1-25.6c-8.1-14.6-10.2-27.5-4-33.7c3.4-3.4,8.7-4.3,15.3-3.1c4.3-2.7,9.3-5.7,14.8-8.8
				c-22.5-11.7-48-18.4-75.2-18.4c-89.9,0-162.9,72.9-162.9,162.9c0,89.9,72.9,162.9,162.9,162.9C-40,975.6,33,902.7,33,812.7
				c0-29-7.6-56.3-20.9-79.9C9.1,738.2,6.3,743,3.7,747.1L3.7,747.1z"/>
		</g>
	</g>
</g>
<g id="Chrome_OS" class="st0">
	<g id="XMLID_16_" class="st1">
		<path id="XMLID_17_" class="st2" d="M190.3,256c0,36,29.7,65.7,65.7,65.7s65.7-29.7,65.7-65.7S292,190.3,256,190.3
			C218.9,190.3,190.3,220,190.3,256z"/>
		<path id="XMLID_18_" class="st2" d="M405.5,170.1c0-1.1,0-2.1,0-3.2c-14.8-25.4-37.1-46.6-62.5-62.5c-26.5-15.9-57.2-23.3-88-23.3
			c-53,0-102.8,24.4-136.7,65.7c-1.1,1.1-1.1,2.1,0,3.2l48.8,84.8c0,1.1,1.1,1.1,2.1,1.1l0,0c1.1,0,2.1-1.1,2.1-2.1
			c9.5-37.1,43.5-63.6,82.7-63.6c2.1,0,5.3,0,7.4,0l0,0h139.9C404.4,171.2,405.5,170.1,405.5,170.1z"/>
		<path id="XMLID_19_" class="st2" d="M281.4,338.7c-1.1-1.1-2.1-1.1-3.2-1.1c-7.4,2.1-14.8,3.2-23.3,3.2
			c-32.9,0-63.6-19.1-77.4-48.8l0,0l-70-121.9c0-1.1-1.1-1.1-2.1-1.1l0,0c-1.1,0-2.1,1.1-2.1,1.1C88.5,196.6,81,226.3,81,256
			c0,42.4,14.8,82.7,42.4,114.5s64.7,51.9,106,58.3l0,0c1.1,0,2.1-1.1,2.1-1.1l48.8-84.8C282.5,340.8,282.5,339.7,281.4,338.7z"/>
		<path id="XMLID_20_" class="st2" d="M416.1,190.3h-98.6c-1.1,0-2.1,1.1-3.2,2.1c0,1.1,0,2.1,1.1,3.2c17,15.9,25.4,38.2,25.4,60.4
			c0,17-5.3,33.9-14.8,48.8l0,0l-70,121.9c0,1.1,0,2.1,0,3.2s1.1,1.1,2.1,1.1l0,0c46.6,0,90.1-19.1,121.9-51.9
			c32.9-32.9,50.9-76.3,50.9-123c0-22.3-4.2-43.5-11.7-63.6C418.2,191.3,417.1,190.3,416.1,190.3z"/>
	</g>
</g>
<g id="Linux" class="st0">
	<path class="st3" d="M234.4,91.1c-157,12.6-115.3,178.4-117.7,234c-2.1,29.3-11.8,65.3-25.6,101.9h42.5c4.3-15.5,7.6-30.8,8.9-45.4
		c2.5,1.8,5.3,3.5,8.2,5.1c4.7,2.8,8.8,6.6,13.1,10.5c10.1,9.2,21.6,19.6,43.9,20.9c1.4,0.1,3,0.1,4.5,0.1
		c22.6,0,38.1-9.9,50.6-17.9c5.9-3.8,11.2-7.1,15.9-8.7c13.8-4.3,25.8-11.3,34.8-20.1c1.4-1.4,2.8-2.8,3.9-4.2
		c5,18.4,11.8,39,19.5,59.7h90.7c-21.7-33.7-44.2-66.5-43.8-108.5C384.8,235.5,393.4,78.5,234.4,91.1z"/>
	<path class="st4" d="M312.1,310.6c-7.2-3.2-13.1-5.3-17.9-7c2.6-5.3,4.3-11.7,4.5-18.8l0,0c0.4-17.2-8.3-31.2-19.3-31.3
		c-11,0-20.4,13.9-20.8,31.2l0,0c0,0.5,0,1.2,0,1.7c-6.8-3.2-13.5-5.4-20.1-6.8c0-0.7-0.1-1.3-0.1-2l0,0c-0.7-31.4,18.5-57.3,43-58
		c24.3-0.7,44.7,24.2,45.2,55.6l0,0c0.3,14.2-3.5,27.2-10,37.3C315.2,311.9,313.7,311.3,312.1,310.6z"/>
	<path class="st4" d="M285.3,320.9c5.3,1.8,11.3,3.9,19.3,7.4h0.1c7.5,3,16.4,8.7,16,18c-0.7,14.3-19.3,27.7-36.7,33.3h-0.1
		c-7.2,2.4-13.7,6.4-20.4,10.8c-11.4,7.4-23.3,14.9-40.2,14.9c-1.2,0-2.2,0-3.4-0.1c-15.6-0.9-22.9-7.6-32.2-16
		c-4.9-4.5-9.9-9.1-16.4-12.9l-0.1-0.1c-14.1-7.9-22.7-17.7-23.3-26.3c-0.3-4.2,1.6-8,5.7-11c8.8-6.6,14.6-10.9,18.5-13.7
		c4.3-3.2,5.7-4.1,6.6-5c0.7-0.7,1.4-1.3,2.2-2.1c8-7.8,21.4-20.9,42.1-20.9c12.6,0,26.6,4.9,41.4,14.5
		C271.5,316,277.5,318.1,285.3,320.9z"/>
	<path class="st3" d="M219.9,349.8c-20.1-1.4-36.2-7-43.3-11.7c-4.3-3-10.3-1.8-13.3,2.5s-1.8,10.4,2.5,13.3
		c11.4,7.8,31.6,13.4,52.6,15c3.5,0.3,7.5,0.4,11.7,0.4c18.3,0,41.7-1.7,66.5-13.3c4.7-2.2,6.8-7.9,4.6-12.8
		c-2.2-4.7-7.9-6.8-12.8-4.6C261.7,351.1,236.7,351,219.9,349.8z"/>
	<path class="st4" d="M191.5,285.1L191.5,285.1c-1.4-15.4-9.7-27.1-18.4-25.9c-8.7,1.1-14.5,14.3-12.9,29.7
		c0.7,6.7,2.6,12.8,5.3,17.2c-0.7,0.5-2.5,2-4.7,3.5c-1.7,1.2-3.7,2.6-6,4.5c-6.6-8.5-11-20.9-11.8-34.8l0,0
		c-1.6-27.1,11.4-50,28.9-50.9c17.6-1.1,33,20.1,34.6,47.2l0,0c0.1,1.4,0.1,2.9,0.1,4.3c-5.5,1.4-10.5,3.4-15.1,5.8
		C191.5,285.5,191.5,285.4,191.5,285.1z"/>
</g>
<g id="MacOS" class="st0">
	<path class="st5" d="M276.6,90.3c13.8-16.3,37.7-28.9,57.7-28.9c2.5,22.6-6.3,45.2-20.1,61.5s-36.4,28.9-57.7,27.6
		C252.7,129.2,264,105.3,276.6,90.3z"/>
	<path class="st5" d="M387.1,401.6c-16.3,23.8-32.6,47.7-59,47.7s-33.9-15.1-64-15.1s-38.9,15.1-64,16.3
		c-25.1,1.3-45.2-25.1-61.5-49c-33.9-47.7-59-136.8-25.1-195.8c17.6-30.1,47.7-47.7,80.3-49c25.1,0,49,17.6,64,17.6
		c15.1,0,43.9-21.3,74.1-17.6c12.6,0,47.7,5,71.5,38.9c-1.3,1.3-42.7,25.1-41.4,74.1c0,59,51.5,77.8,52.7,79.1
		C413.4,347.6,405.9,375.2,387.1,401.6z"/>
</g>
<g id="Windows">
	<polygon class="st6" points="224.8,389.3 95.6,370.8 95.6,265.8 224.8,265.8 	"/>
	<polygon class="st6" points="224.8,247.3 95.6,247.3 95.6,142.3 224.8,122.7 	"/>
	<polygon class="st6" points="416.4,417 242.2,391.6 242.2,264.7 416.4,264.7 	"/>
	<polygon class="st6" points="416.4,247.3 243.3,247.3 243.3,120.4 416.4,95 	"/>
</g>
<g id="RaspberryPi" class="st0">
	<g id="g6677" transform="translate(136.1786,108.25001)" class="st1">
		<path id="path5175-4" class="st2" d="M57.6-24.7c-1.7,0.1-3.6,0.7-5.7,2.4c-5.2-2-10.3-2.7-14.8,1.4c-7-0.9-9.2,1-11,3.2
			c-1.5,0-11.5-1.6-16.1,5.2C-1.4-14-5-5.9-0.9,1.7c-2.3,3.6-4.8,7.2,0.7,14.1c-1.9,3.8-0.7,8,3.8,13.1C2.4,34.3,4.8,38.1,9,41.1
			c-0.8,7.4,6.8,11.7,9,13.2c0.9,4.3,2.7,8.4,11.3,10.6c1.4,6.4,6.6,7.5,11.7,8.9c-16.7,9.7-31,22.4-30.9,53.7l-2.4,4.4
			c-19.1,11.6-36.3,49-9.4,79.3c1.8,9.5,4.7,16.3,7.3,23.9c3.9,30.4,29.5,44.7,36.3,46.4c9.9,7.5,20.4,14.7,34.7,19.7
			c13.4,13.9,28,19.1,43.2,19.1s29.8-5.3,43.2-19.1c14.3-5,24.8-12.1,34.7-19.7c6.7-1.7,32.3-16,36.3-46.4
			c2.6-7.6,5.6-14.4,7.3-23.9c26.9-30.3,9.7-67.7-9.4-79.3l-2.4-4.4c0.1-31.3-14.2-44-30.9-53.7c5-1.3,10.2-2.5,11.7-8.9
			c8.7-2.3,10.5-6.3,11.3-10.6c2.3-1.5,9.8-5.8,9-13.2c4.2-3,6.6-6.8,5.4-12.2c4.6-5.1,5.8-9.2,3.8-13.1c5.5-6.9,3-10.5,0.7-14.1
			c4.1-7.6,0.5-15.7-11-14.3c-4.6-6.8-14.5-5.3-16.1-5.2c-1.7-2.2-4-4.1-11-3.2c-4.5-4.1-9.6-3.4-14.8-1.4c-2.1-1.7-4-2.3-5.7-2.4
			c-3.3-0.1-6.2,1.9-9.2,2.9c-7.5-2.5-9.2,0.9-12.9,2.3c-8.2-1.7-10.7,2.1-14.6,6l-4.6-0.1c-12.3,7.3-18.4,22.1-20.9,22.1
			c-2.4,0-8.5-14.8-20.9-22.1l-4.6,0.1c-3.9-4-6.4-7.8-14.6-6c-3.7-1.4-5.4-4.7-12.9-2.3C63.8-22.8,60.9-24.8,57.6-24.7L57.6-24.7z
			 M58.1-16c6.3,2.3,9.5,5.3,12.9,8.3c1.2-1.6,2.9-2.7,0.8-6.5c4.5,2.6,7.8,5.6,10.3,9c2.8-1.8,1.6-4.1,1.6-6.3
			c4.6,3.8,7.6,7.8,11.2,11.7c0.7-0.5,1.3-2.3,1.9-5.1c11,10.7,26.6,37.7,4,48.4c-19.3-16-42.3-27.6-67.7-36.2
			c32.7,16.9,51.8,30.5,62.2,42.1C90,70.8,62.1,71.8,51.9,71.2c2.1-1,3.8-2.2,4.4-3.9c-2.6-1.8-11.6-0.2-18-3.7
			c2.4-0.5,3.6-1,4.7-2.8c-6-1.9-12.4-3.6-16.2-6.7c2,0,3.9,0.5,6.6-1.4c-5.4-2.9-11.1-5.2-15.5-9.6c2.8-0.1,5.7,0,6.6-1.1
			c-4.9-3-9-6.4-12.5-10.1c3.9,0.5,5.5,0.1,6.4-0.6c-3.7-3.8-8.4-7-10.6-11.7c2.9,1,5.5,1.3,7.4-0.1C14.1,16.7,8.7,15,5.6,8.4
			c3,0.3,6.3,0.7,6.9,0c-1.4-5.7-3.8-9-6.2-12.3c6.5-0.1,16.3,0,15.9-0.5l-4-4.1c6.3-1.7,12.8,0.3,17.5,1.8c2.1-1.7-0.1-3.8-2.6-5.9
			c5.4,0.7,10.3,2,14.7,3.7c2.3-2.1-1.5-4.2-3.4-6.3c8.3,1.6,11.9,3.8,15.4,6C62.2-11.8,59.8-13.9,58.1-16z M181.6-16
			c-1.7,2.1-4.1,4.2-1.6,6.6c3.5-2.2,7-4.4,15.4-6c-1.9,2.1-5.8,4.2-3.4,6.3c4.4-1.7,9.3-2.9,14.7-3.7c-2.6,2.2-4.7,4.3-2.6,5.9
			c4.7-1.5,11.2-3.5,17.5-1.8l-4,4.1c-0.4,0.5,9.4,0.4,15.9,0.5c-2.4,3.3-4.8,6.6-6.2,12.3c0.6,0.7,3.9,0.3,6.9,0
			c-3.1,6.6-8.5,8.3-9.8,11.1c1.9,1.5,4.5,1.1,7.4,0.1c-2.2,4.7-6.9,7.9-10.6,11.7c0.9,0.7,2.6,1.1,6.4,0.6
			c-3.4,3.7-7.6,7.1-12.5,10.1c0.9,1,3.8,1,6.6,1.1c-4.4,4.4-10.1,6.7-15.5,9.6c2.7,1.9,4.6,1.4,6.6,1.4c-3.8,3.2-10.2,4.8-16.2,6.7
			c1.1,1.8,2.3,2.3,4.7,2.8c-6.3,3.6-15.4,1.9-18,3.7c0.6,1.8,2.4,3,4.4,3.9c-10.2,0.6-38.1-0.4-43.4-21.8
			c10.4-11.6,29.5-25.3,62.2-42.1c-25.5,8.7-48.4,20.2-67.7,36.1c-22.6-10.7-7-37.7,4-48.4c0.6,2.8,1.2,4.6,1.9,5.1
			c3.6-3.9,6.5-7.9,11.2-11.7c0,2.2-1.1,4.6,1.6,6.3c2.5-3.4,5.8-6.4,10.3-9c-2.1,3.8-0.4,4.9,0.8,6.5
			C172.1-10.7,175.3-13.7,181.6-16L181.6-16z M119.8,72.6c19.5,0,35.8,13.3,35.9,21.1c0.1,9.8-14.3,19.8-35.6,20.1
			c-0.1,0-0.2,0-0.3,0c-0.1,0-0.2,0-0.3,0c-21.3-0.3-35.6-10.3-35.6-20.1C84,85.8,100.3,72.6,119.8,72.6z M65,79c0.4,0,0.8,0,1.2,0
			c3.2,0,6.4,0.3,9.7,0.8c11.2,1.9-53.5,58.3-54.5,45.7C20.6,96.8,39.8,79.4,65,79z M173.4,79c0.4,0,0.8,0,1.2,0
			c25.2,0.4,44.4,17.8,43.5,46.6c-1,12.6-65.6-43.9-54.5-45.7C167,79.3,170.3,79,173.4,79z M75.3,114.9c3.7,0,7.5,0.5,11.2,1.8
			c19.6,6.6,29.5,29.5,22.1,51.2s-29.2,33.9-48.8,27.3S30.3,165.7,37.7,144C43.6,126.4,59.2,115.1,75.3,114.9z M164.3,114.9
			C180.4,115,196,126.4,202,144c7.4,21.7-2.5,44.6-22.1,51.2c-19.6,6.6-41.5-5.7-48.8-27.3c-7.4-21.7,2.5-44.6,22.1-51.2
			C156.8,115.5,160.6,114.9,164.3,114.9L164.3,114.9z M18,139.1c15.3,0.2,3.9,72.6-9.9,66.5C-7.6,193-12.7,156,16.4,139.4
			c0.4-0.1,0.8-0.2,1.2-0.2C17.7,139.1,17.9,139.1,18,139.1L18,139.1z M221.7,139.1c0.1,0,0.3,0,0.4,0c0.4,0,0.8,0.1,1.2,0.2
			c29.1,16.6,24.1,53.6,8.4,66.2C217.7,211.7,206.4,139.3,221.7,139.1L221.7,139.1z M119.8,189.2c10.3,0,19.9,3.7,26.9,10.1
			c7.5,6.8,11.8,16.4,11.8,26c0,9.5-4.2,18.9-11.5,25.6c-7.1,6.6-17.1,10.5-27.2,10.6c-10.1-0.1-20.1-4-27.2-10.6
			c-7.3-6.7-11.5-16.1-11.5-25.6c-0.1-9.6,4.3-19.3,11.8-26C99.9,192.9,109.5,189.2,119.8,189.2z M29.7,208.1
			c10.1-0.2,22.5,7.8,32.6,19.4c11.2,13.5,16.3,37.3,7,44.3c-8.9,5.3-30.4,3.1-45.7-18.8c-10.3-18.4-9-37.2-1.7-42.7
			C24.3,208.9,26.9,208.2,29.7,208.1z M208.9,208.1c0.3,0,0.6,0,1,0c2.8,0.1,5.5,0.8,7.8,2.2c7.2,5.5,8.6,24.3-1.7,42.7
			c-15.3,22-36.8,24.2-45.7,18.8c-9.4-7-4.3-30.8,7-44.3C187,216.3,199,208.4,208.9,208.1L208.9,208.1z M119.8,272.9
			c15.7-0.2,39,6.4,38.7,14.8c0.3,5.8-18.9,22.6-38.3,21.8c-0.1,0-0.2,0-0.3,0c-0.1,0-0.2,0-0.3,0c-19.5,0.8-38.6-16-38.3-21.8
			C80.9,279.3,104.2,272.7,119.8,272.9z"/>
	</g>
</g>
<g id="Android" class="st0">
	<g class="st1">
		<path class="st2" d="M140.6,301.7c0,12.2-10,21.1-21.1,21.1s-21.1-10-21.1-21.1v-92.1c0-12.2,10-21.1,21.1-21.1s21.1,10,21.1,21.1
			V301.7z"/>
		<path class="st2" d="M355.9,206.3v14.4v125.4c0,12.2-10,22.2-22.2,22.2H317c0,2.2,1.1,4.4,1.1,5.5v1.1v6.7v36.6
			c0,12.2-10,21.1-21.1,21.1c-12.2,0-21.1-10-21.1-21.1v-36.6V375v-1.1c0-2.2,0-4.4,1.1-5.5h-40c0,2.2,1.1,4.4,1.1,5.5v1.1v6.7v36.6
			c0,12.2-10,21.1-21.1,21.1s-21.1-10-21.1-21.1v-36.6V375v-1.1c0-2.2,0-4.4,1.1-5.5h-16.6c-12.2,0-22.2-10-22.2-22.2V220.7v-14.4
			v-17.8h1.1H357h1.1L355.9,206.3L355.9,206.3z"/>
		<path class="st2" d="M155,174.1c0-31.1,21.1-57.7,51.1-72.1l-4.4-5.5l-4.4-5.5l-8.9-13.3c-1.1-1.1-1.1-4.4,1.1-4.4
			c2.2,0,4.4-1.1,4.4,1.1l10,14.4l4.4,5.5l4.4,6.7c13.3-5.5,27.7-7.8,42.2-7.8c15.5,0,30,3.3,42.2,7.8l4.4-6.7l4.4-5.5l10-14.4
			c1.1-1.1,3.3-2.2,4.4-1.1s2.2,3.3,1.1,4.4L312.5,91l-4.4,5.5l-4.4,5.5c30,14.4,51.1,41.1,51.1,72.1H155z"/>
		<path class="st2" d="M413.6,301.7c0,12.2-10,21.1-21.1,21.1c-12.2,0-21.1-10-21.1-21.1v-92.1c0-12.2,10-21.1,21.1-21.1
			c12.2,0,21.1,10,21.1,21.1V301.7z"/>
		<circle class="st7" cx="212.7" cy="135.3" r="11.1"/>
		<circle class="st7" cx="298.2" cy="135.3" r="11.1"/>
	</g>
</g>
</svg>
